<?xml version="1.0" encoding="UTF-8" standalone="no"?>
<!-- Created with Inkscape (http://www.inkscape.org/) -->

<svg
   xmlns:dc="http://purl.org/dc/elements/1.1/"
   xmlns:cc="http://creativecommons.org/ns#"
   xmlns:rdf="http://www.w3.org/1999/02/22-rdf-syntax-ns#"
   xmlns:svg="http://www.w3.org/2000/svg"
   xmlns="http://www.w3.org/2000/svg"
   xmlns:xlink="http://www.w3.org/1999/xlink"
   xmlns:sodipodi="http://sodipodi.sourceforge.net/DTD/sodipodi-0.dtd"
   xmlns:inkscape="http://www.inkscape.org/namespaces/inkscape"
   width="31.972118mm"
   height="37.618183mm"
   viewBox="0 0 31.972118 37.618183"
   version="1.1"
   id="svg8"
   inkscape:version="0.92.5 (2060ec1f9f, 2020-04-08)"
   sodipodi:docname="logo.svg">
  <defs
     id="defs2">
    <linearGradient
       inkscape:collect="always"
       id="linearGradient1014">
      <stop
         style="stop-color:#00dff4;stop-opacity:1"
         offset="0"
         id="stop1010" />
      <stop
         style="stop-color:#0043cc;stop-opacity:1"
         offset="1"
         id="stop1012" />
    </linearGradient>
    <clipPath
       clipPathUnits="userSpaceOnUse"
       id="clipPath138">
      <path
         style="fill:#000000;stroke-width:0.26458332"
         d="m 84.375297,210.18638 c -2.651244,-1.08514 -2.234687,-5.46654 0.569743,-5.99266 1.107022,-0.20768 2.208382,0.055 2.208382,0.52678 0,0.26846 -0.296034,0.32597 -1.170509,0.2274 -1.574461,-0.17746 -2.533658,0.69842 -2.533658,2.3136 0,1.593 0.942028,2.46483 2.527081,2.33876 0.765079,-0.0608 1.177086,0.0129 1.177086,0.21072 0,0.59839 -1.678977,0.82527 -2.778125,0.3754 z m 5.096555,-0.16405 c -2.019798,-1.09593 -1.98669,-4.47911 0.05416,-5.53447 2.563249,-1.32551 5.126831,0.98298 4.269462,3.84463 -0.543771,1.81494 -2.606926,2.6213 -4.323622,1.68984 z m 2.987249,-1.05595 c 0.931421,-0.99145 0.884245,-2.60535 -0.100925,-3.45276 -1.299906,-1.11812 -3.095729,-0.5586 -3.510442,1.09375 -0.5823,2.32007 2.039213,4.03249 3.611367,2.35901 z m 2.631821,-1.70488 c 0,-4.04873 0.280265,-4.1467 2.445491,-0.85485 l 1.519452,2.31005 0.0019,-2.31509 c 0.0016,-1.88064 0.07638,-2.31511 0.398782,-2.31511 0.330732,0 0.396873,0.52917 0.396873,3.175 0,1.88423 -0.104781,3.175 -0.257763,3.175 -0.141758,0 -1.004967,-1.10133 -1.918226,-2.44739 l -1.660414,-2.44741 -0.07608,2.44741 c -0.06019,1.93648 -0.156851,2.44739 -0.463024,2.44739 -0.31804,0 -0.386942,-0.56537 -0.386942,-3.175 z m 6.349998,0 c 0,-3.97369 0.22764,-4.05802 2.32105,-0.85989 l 1.51541,2.31509 0.0765,-2.31509 c 0.0601,-1.81919 0.15925,-2.31511 0.46302,-2.31511 0.31757,0 0.38657,0.56677 0.38657,3.175 0,2.5564 -0.0727,3.175 -0.37322,3.175 -0.20527,0 -1.06847,-1.10133 -1.91823,-2.44739 l -1.545,-2.44741 -0.0761,2.44741 c -0.0602,1.93648 -0.15685,2.44739 -0.46302,2.44739 -0.31804,0 -0.38695,-0.56537 -0.38695,-3.175 z m 6.35,0 v -3.175 h 1.85209 c 1.46991,0 1.85208,0.0819 1.85208,0.39688 0,0.30868 -0.35278,0.39687 -1.5875,0.39687 h -1.5875 v 0.92604 c 0,0.92115 0.006,0.92605 1.19063,0.92605 0.88194,0 1.19062,0.10289 1.19062,0.39686 0,0.29399 -0.30868,0.39689 -1.19062,0.39689 h -1.19063 v 1.05833 1.05833 h 1.5875 c 1.23472,0 1.5875,0.0882 1.5875,0.39688 0,0.31498 -0.38217,0.39687 -1.85208,0.39687 h -1.85209 z m 6.0226,2.76083 c -2.20839,-1.19827 -1.9113,-4.88874 0.45646,-5.67018 1.10625,-0.36509 2.78136,-0.14288 2.78136,0.36896 0,0.25279 -0.33869,0.31465 -1.25677,0.22954 -1.01772,-0.0943 -1.3694,-0.0101 -1.84888,0.44305 -0.69891,0.66046 -0.98448,1.61274 -0.75629,2.52194 0.30581,1.21845 1.19981,1.78697 2.60517,1.6567 0.88455,-0.082 1.25677,-0.0196 1.25677,0.21068 0,0.6952 -2.11018,0.85115 -3.23782,0.23931 z m 5.35449,-2.36395 v -2.77813 h -0.79375 c -0.52917,0 -0.79375,-0.1323 -0.79375,-0.39687 0,-0.31971 0.41157,-0.39688 2.11666,-0.39688 1.70509,0 2.11667,0.0772 2.11667,0.39688 0,0.27718 -0.27928,0.39687 -0.92604,0.39687 h -0.92604 v 2.77813 c 0,2.29305 -0.0693,2.77812 -0.39688,2.77812 -0.32758,0 -0.39687,-0.48507 -0.39687,-2.77812 z m 5.55625,-0.39688 c 0,-2.64583 0.0661,-3.175 0.39687,-3.175 0.33073,0 0.39688,0.52917 0.39688,3.175 0,2.64584 -0.0662,3.175 -0.39688,3.175 -0.33073,0 -0.39687,-0.52916 -0.39687,-3.175 z m 3.70416,0.39688 v -2.77813 h -0.92604 c -0.64676,0 -0.92604,-0.11969 -0.92604,-0.39687 0,-0.32196 0.42872,-0.39688 2.27101,-0.39688 1.69832,0 2.24363,0.0834 2.16243,0.33073 -0.0597,0.1819 -0.48635,0.36804 -0.94809,0.41363 l -0.83952,0.0829 v 2.76136 c 0,2.27816 -0.0694,2.76136 -0.39687,2.76136 -0.32758,0 -0.39688,-0.48507 -0.39688,-2.77812 z m -30.030206,-16.65399 -7.9375,-4.6098 v -9.56082 -9.56082 l 8.003645,-4.64247 8.003651,-4.64246 8.00364,4.64246 8.00365,4.64247 v 9.56082 9.56082 l -7.9375,4.6098 c -4.36563,2.5354 -7.99703,4.60981 -8.06979,4.60981 -0.0728,0 -3.70417,-2.07441 -8.069796,-4.60981 z m 9.855726,-0.82298 c 0.36601,-0.41593 0.59532,-1.02028 0.59532,-1.56899 0,-0.82433 0.15155,-0.98695 1.98437,-2.1293 1.09141,-0.68024 1.98438,-1.40308 1.98438,-1.6063 0,-0.55851 -0.24718,-0.47116 -2.32378,0.82113 -1.93966,1.2071 -2.54061,1.40335 -2.8356,0.92605 -0.22789,-0.36875 -2.02801,-0.31582 -2.53647,0.0746 -1.04692,0.8038 -1.3229,2.30766 -0.61022,3.32515 0.88701,1.26639 2.69916,1.34276 3.742,0.1577 z m -2.84427,-0.38241 c -0.29104,-0.29105 -0.52916,-0.7673 -0.52916,-1.05833 0,-0.29104 0.23812,-0.76729 0.52916,-1.05833 0.29105,-0.29105 0.7673,-0.52917 1.05834,-0.52917 0.6544,0 1.5889,0.89785 1.58345,1.52134 -0.005,0.61289 -0.26984,0.98053 -0.97075,1.34947 -0.79873,0.42041 -1.06095,0.38511 -1.67104,-0.22498 z m 1.54076,-1.1464 c 0.0577,-0.29742 -0.0931,-0.4411 -0.46302,-0.4411 -0.30171,0 -0.54857,0.15875 -0.54857,0.35278 0,0.81035 0.85705,0.88518 1.01159,0.0883 z m -3.92201,-2.14064 c 0,-0.20715 -0.89296,-0.9423 -1.98437,-1.63368 -1.883683,-1.19326 -1.984378,-1.30658 -1.984378,-2.23313 0,-1.30961 -1.032095,-2.37115 -2.305391,-2.37115 -1.216062,0 -2.457109,1.20273 -2.457109,2.38125 0,1.75475 2.213941,2.97193 3.617508,1.98884 0.520842,-0.36481 0.697121,-0.30111 2.50627,0.90567 2.05695,1.3721 2.60747,1.57525 2.60747,0.9622 z m -7.389128,-2.96635 c -0.301604,-0.38342 -0.54837,-0.78408 -0.54837,-0.89036 0,-0.46003 1.141111,-1.5875 1.606703,-1.5875 0.665142,0 1.568297,0.91422 1.568297,1.5875 0,0.67329 -0.903155,1.5875 -1.568297,1.5875 -0.280479,0 -0.756729,-0.31371 -1.058333,-0.69714 z m 1.568297,-0.89036 c 0,-0.29104 -0.171567,-0.52916 -0.38126,-0.52916 -0.46741,0 -0.766249,0.4354 -0.544782,0.79375 0.287732,0.46556 0.926042,0.28318 0.926042,-0.26459 z m 20.657851,1.60785 c 1.10246,-1.10245 1.05198,-2.20867 -0.15264,-3.34478 l -0.92604,-0.87337 v -2.53131 c 0,-2.35491 -0.0369,-2.5313 -0.52917,-2.5313 -0.49389,0 -0.52917,0.17639 -0.52917,2.64583 0,1.45521 -0.10282,2.64583 -0.2285,2.64583 -0.12568,0 -0.5424,0.31389 -0.92604,0.69754 -0.50161,0.50161 -0.69518,0.96609 -0.68913,1.65365 0.0196,2.22197 2.41217,3.20644 3.98069,1.63791 z m -2.64991,-0.53324 c -0.29999,-0.29999 -0.54544,-0.78357 -0.54544,-1.07461 0,-0.72777 0.9725,-1.63769 1.64337,-1.53762 0.30388,0.0453 0.79605,0.40984 1.09372,0.81002 l 0.54123,0.7276 -0.54123,0.72761 c -0.68385,0.91934 -1.49144,1.04721 -2.19165,0.347 z m 1.43894,-1.07461 c 0,-0.21429 -0.20836,-0.42975 -0.46303,-0.4788 -0.32486,-0.0626 -0.46302,0.0803 -0.46302,0.4788 0,0.3985 0.13816,0.54136 0.46302,0.4788 0.25467,-0.049 0.46303,-0.2645 0.46303,-0.4788 z m -8.33438,0.39688 c 0,-0.30365 -0.33472,-0.39688 -1.425,-0.39688 -2.0507,0 -4.00218,-1.06908 -5.05249,-2.76792 -0.68252,-1.10395 -0.79723,-1.54918 -0.79784,-3.09682 -5.3e-4,-1.54463 -0.068,-1.80754 -0.46373,-1.80783 -0.38622,-2.6e-4 -0.46302,0.2469 -0.46302,1.49031 0,2.06776 0.45205,3.37432 1.63079,4.71344 1.39773,1.5879 2.86322,2.2621 4.91764,2.26236 1.29362,1.7e-4 1.65365,-0.0862 1.65365,-0.39666 z m -0.32353,-1.83724 c 0.30952,-0.30951 -0.34782,-0.67642 -1.21344,-0.67729 -2.05893,-0.002 -3.84067,-1.88009 -3.69826,-3.89807 0.0546,-0.77365 -0.0356,-1.16494 -0.29112,-1.263 -0.51799,-0.19877 -0.58947,-0.0649 -0.60603,1.13437 -0.0312,2.25982 1.10235,3.96721 3.12599,4.7085 0.89352,0.3273 2.3535,0.32485 2.68286,-0.004 z m -0.88873,-1.89524 c 0.66916,-0.25678 0.4957,-0.89773 -0.24295,-0.89773 -0.3638,0 -0.89958,-0.23813 -1.19062,-0.52917 -0.29104,-0.29104 -0.52917,-0.82682 -0.52917,-1.19062 0,-0.41158 -0.14993,-0.66146 -0.39687,-0.66146 -0.4747,0 -0.54434,1.34676 -0.11146,2.15559 0.21571,0.40306 1.34505,1.11936 2.00804,1.27364 0.0245,0.006 0.23284,-0.0619 0.46303,-0.15025 z m -9.900233,-3.21283 7e-6,-2.57969 0.926034,-0.73889 c 0.781032,-0.62318 0.926034,-0.90471 0.926034,-1.79796 0,-1.43519 -0.907719,-2.36122 -2.303079,-2.34953 -1.096867,0.009 -1.677966,0.34164 -2.151621,1.23096 -0.560186,1.05179 -0.367472,1.94916 0.618242,2.8788 l 0.926041,0.87338 v 2.5313 c 0,2.35492 0.03688,2.53131 0.529167,2.53131 0.492985,0 0.529167,-0.17639 0.529175,-2.57968 z m -1.258782,-3.91392 c -0.816417,-0.57184 -0.799259,-1.82592 0.03244,-2.37087 1.288786,-0.84444 2.770074,0.58395 2.033278,1.96066 -0.163015,0.3046 -0.401526,0.55381 -0.530026,0.55381 -0.128498,0 -0.3931,0.0612 -0.588005,0.13599 -0.194903,0.0748 -0.621361,-0.051 -0.947682,-0.27959 z m 1.258774,-1.17931 c 0,-0.35278 -0.17639,-0.52917 -0.529167,-0.52917 -0.509902,0 -0.716994,0.51773 -0.352777,0.88194 0.364215,0.36422 0.881944,0.15713 0.881944,-0.35277 z m 16.254421,6.74687 c 0.31771,-1.69357 -0.48018,-4.19977 -1.79834,-5.64859 -1.6423,-1.80508 -6.51858,-2.91978 -6.51858,-1.49012 0,0.29086 0.32388,0.39222 1.25677,0.39331 1.97371,0.002 3.19367,0.46615 4.39776,1.67201 1.2386,1.24043 1.7538,2.6038 1.7538,4.64107 0,1.61992 0.62959,1.91949 0.90859,0.43232 z m -2.22969,-2.11018 c -0.58087,-2.07466 -3.31924,-3.93201 -5.12788,-3.47807 -1.03254,0.25915 -0.5989,0.95804 0.59444,0.95804 2.1165,0 3.73788,1.68147 3.73788,3.87643 0,1.31543 0.55434,1.68047 0.8962,0.59015 0.15374,-0.49034 0.11902,-1.16202 -0.10064,-1.94655 z m -1.94035,1.55697 c 0.4413,-1.15001 -1.7822,-3.37351 -2.93221,-2.93221 -0.70816,0.27175 -0.50224,0.97188 0.28585,0.97188 0.94717,0 1.67448,0.70734 1.67448,1.62851 0,0.82893 0.69064,1.06473 0.97188,0.33182 z m -2.03021,-0.37283 c 0,-0.35278 -0.17639,-0.52917 -0.52917,-0.52917 -0.5099,0 -0.71699,0.51773 -0.35278,0.88195 0.36422,0.36421 0.88195,0.15712 0.88195,-0.35278 z m 10.60368,-4.21298 c 1.08827,-1.08827 0.97241,-2.7022 -0.262,-3.64996 -0.52547,-0.40344 -1.91495,-0.43016 -2.74329,-0.0527 -0.54334,0.24756 -0.90336,0.11958 -2.65485,-0.94378 -1.84484,-1.12003 -2.56229,-1.30607 -2.56229,-0.66444 0,0.12895 0.9525,0.80527 2.11666,1.50293 2.03121,1.21726 2.11667,1.3077 2.11667,2.23995 0,0.76 0.17721,1.1206 0.81405,1.65646 1.10263,0.9278 2.18909,0.89754 3.17505,-0.0884 z m -2.34121,-0.34584 c -1.13884,-0.54886 -0.99641,-2.33617 0.21687,-2.72124 1.47055,-0.46674 2.52117,1.74544 1.25137,2.63485 -0.67484,0.47267 -0.66759,0.47225 -1.46824,0.0864 z m 1.21274,-1.3312 c 0.0611,-0.3175 -0.0813,-0.45998 -0.45998,-0.45998 -0.37864,0 -0.54857,0.16992 -0.54857,0.54857 0,0.67803 0.87573,0.60111 1.00855,-0.0886 z m -11.62395,-3.91673 c 0.98893,0.52926 2.38445,0.34017 3.08741,-0.41834 0.92343,-0.9964 0.87444,-2.29 -0.12457,-3.28901 -0.98597,-0.98597 -2.07242,-1.01622 -3.17505,-0.0884 -0.64679,0.54423 -0.81405,0.89216 -0.81405,1.69331 0,0.97299 -0.075,1.05597 -2.14091,2.36756 -1.7419,1.1059 -2.083681,1.42817 -1.83389,1.72916 0.25551,0.30787 0.65662,0.14798 2.39082,-0.95304 1.73278,-1.10011 2.17247,-1.2755 2.61024,-1.04122 z m 0.61029,-0.69293 c -0.65027,-0.26014 -0.8962,-1.41796 -0.44686,-2.10374 0.9211,-1.40577 3.13865,-0.28309 2.54177,1.28683 -0.33228,0.87395 -1.15267,1.19387 -2.09491,0.81691 z m 1.27386,-1.40657 c 0,-0.35278 -0.17639,-0.52917 -0.52916,-0.52917 -0.35278,0 -0.52917,0.17639 -0.52917,0.52917 0,0.35278 0.17639,0.52917 0.52917,0.52917 0.35277,0 0.52916,-0.17639 0.52916,-0.52917 z"
         id="path140"
         inkscape:connector-curvature="0" />
    </clipPath>
    <linearGradient
       inkscape:collect="always"
       xlink:href="#linearGradient1014"
       id="linearGradient1016"
       x1="82.931358"
       y1="164.52568"
       x2="114.14649"
       y2="183.14101"
       gradientUnits="userSpaceOnUse" />
    <clipPath
       clipPathUnits="userSpaceOnUse"
       id="clipPath138-3">
      <path
         style="fill:#000000;stroke-width:0.26458332"
         d="m 84.375297,210.18638 c -2.651244,-1.08514 -2.234687,-5.46654 0.569743,-5.99266 1.107022,-0.20768 2.208382,0.055 2.208382,0.52678 0,0.26846 -0.296034,0.32597 -1.170509,0.2274 -1.574461,-0.17746 -2.533658,0.69842 -2.533658,2.3136 0,1.593 0.942028,2.46483 2.527081,2.33876 0.765079,-0.0608 1.177086,0.0129 1.177086,0.21072 0,0.59839 -1.678977,0.82527 -2.778125,0.3754 z m 5.096555,-0.16405 c -2.019798,-1.09593 -1.98669,-4.47911 0.05416,-5.53447 2.563249,-1.32551 5.126831,0.98298 4.269462,3.84463 -0.543771,1.81494 -2.606926,2.6213 -4.323622,1.68984 z m 2.987249,-1.05595 c 0.931421,-0.99145 0.884245,-2.60535 -0.100925,-3.45276 -1.299906,-1.11812 -3.095729,-0.5586 -3.510442,1.09375 -0.5823,2.32007 2.039213,4.03249 3.611367,2.35901 z m 2.631821,-1.70488 c 0,-4.04873 0.280265,-4.1467 2.445491,-0.85485 l 1.519452,2.31005 0.0019,-2.31509 c 0.0016,-1.88064 0.07638,-2.31511 0.398782,-2.31511 0.330732,0 0.396873,0.52917 0.396873,3.175 0,1.88423 -0.104781,3.175 -0.257763,3.175 -0.141758,0 -1.004967,-1.10133 -1.918226,-2.44739 l -1.660414,-2.44741 -0.07608,2.44741 c -0.06019,1.93648 -0.156851,2.44739 -0.463024,2.44739 -0.31804,0 -0.386942,-0.56537 -0.386942,-3.175 z m 6.349998,0 c 0,-3.97369 0.22764,-4.05802 2.32105,-0.85989 l 1.51541,2.31509 0.0765,-2.31509 c 0.0601,-1.81919 0.15925,-2.31511 0.46302,-2.31511 0.31757,0 0.38657,0.56677 0.38657,3.175 0,2.5564 -0.0727,3.175 -0.37322,3.175 -0.20527,0 -1.06847,-1.10133 -1.91823,-2.44739 l -1.545,-2.44741 -0.0761,2.44741 c -0.0602,1.93648 -0.15685,2.44739 -0.46302,2.44739 -0.31804,0 -0.38695,-0.56537 -0.38695,-3.175 z m 6.35,0 v -3.175 h 1.85209 c 1.46991,0 1.85208,0.0819 1.85208,0.39688 0,0.30868 -0.35278,0.39687 -1.5875,0.39687 h -1.5875 v 0.92604 c 0,0.92115 0.006,0.92605 1.19063,0.92605 0.88194,0 1.19062,0.10289 1.19062,0.39686 0,0.29399 -0.30868,0.39689 -1.19062,0.39689 h -1.19063 v 1.05833 1.05833 h 1.5875 c 1.23472,0 1.5875,0.0882 1.5875,0.39688 0,0.31498 -0.38217,0.39687 -1.85208,0.39687 h -1.85209 z m 6.0226,2.76083 c -2.20839,-1.19827 -1.9113,-4.88874 0.45646,-5.67018 1.10625,-0.36509 2.78136,-0.14288 2.78136,0.36896 0,0.25279 -0.33869,0.31465 -1.25677,0.22954 -1.01772,-0.0943 -1.3694,-0.0101 -1.84888,0.44305 -0.69891,0.66046 -0.98448,1.61274 -0.75629,2.52194 0.30581,1.21845 1.19981,1.78697 2.60517,1.6567 0.88455,-0.082 1.25677,-0.0196 1.25677,0.21068 0,0.6952 -2.11018,0.85115 -3.23782,0.23931 z m 5.35449,-2.36395 v -2.77813 h -0.79375 c -0.52917,0 -0.79375,-0.1323 -0.79375,-0.39687 0,-0.31971 0.41157,-0.39688 2.11666,-0.39688 1.70509,0 2.11667,0.0772 2.11667,0.39688 0,0.27718 -0.27928,0.39687 -0.92604,0.39687 h -0.92604 v 2.77813 c 0,2.29305 -0.0693,2.77812 -0.39688,2.77812 -0.32758,0 -0.39687,-0.48507 -0.39687,-2.77812 z m 5.55625,-0.39688 c 0,-2.64583 0.0661,-3.175 0.39687,-3.175 0.33073,0 0.39688,0.52917 0.39688,3.175 0,2.64584 -0.0662,3.175 -0.39688,3.175 -0.33073,0 -0.39687,-0.52916 -0.39687,-3.175 z m 3.70416,0.39688 v -2.77813 h -0.92604 c -0.64676,0 -0.92604,-0.11969 -0.92604,-0.39687 0,-0.32196 0.42872,-0.39688 2.27101,-0.39688 1.69832,0 2.24363,0.0834 2.16243,0.33073 -0.0597,0.1819 -0.48635,0.36804 -0.94809,0.41363 l -0.83952,0.0829 v 2.76136 c 0,2.27816 -0.0694,2.76136 -0.39687,2.76136 -0.32758,0 -0.39688,-0.48507 -0.39688,-2.77812 z m -30.030206,-16.65399 -7.9375,-4.6098 v -9.56082 -9.56082 l 8.003645,-4.64247 8.003651,-4.64246 8.00364,4.64246 8.00365,4.64247 v 9.56082 9.56082 l -7.9375,4.6098 c -4.36563,2.5354 -7.99703,4.60981 -8.06979,4.60981 -0.0728,0 -3.70417,-2.07441 -8.069796,-4.60981 z m 9.855726,-0.82298 c 0.36601,-0.41593 0.59532,-1.02028 0.59532,-1.56899 0,-0.82433 0.15155,-0.98695 1.98437,-2.1293 1.09141,-0.68024 1.98438,-1.40308 1.98438,-1.6063 0,-0.55851 -0.24718,-0.47116 -2.32378,0.82113 -1.93966,1.2071 -2.54061,1.40335 -2.8356,0.92605 -0.22789,-0.36875 -2.02801,-0.31582 -2.53647,0.0746 -1.04692,0.8038 -1.3229,2.30766 -0.61022,3.32515 0.88701,1.26639 2.69916,1.34276 3.742,0.1577 z m -2.84427,-0.38241 c -0.29104,-0.29105 -0.52916,-0.7673 -0.52916,-1.05833 0,-0.29104 0.23812,-0.76729 0.52916,-1.05833 0.29105,-0.29105 0.7673,-0.52917 1.05834,-0.52917 0.6544,0 1.5889,0.89785 1.58345,1.52134 -0.005,0.61289 -0.26984,0.98053 -0.97075,1.34947 -0.79873,0.42041 -1.06095,0.38511 -1.67104,-0.22498 z m 1.54076,-1.1464 c 0.0577,-0.29742 -0.0931,-0.4411 -0.46302,-0.4411 -0.30171,0 -0.54857,0.15875 -0.54857,0.35278 0,0.81035 0.85705,0.88518 1.01159,0.0883 z m -3.92201,-2.14064 c 0,-0.20715 -0.89296,-0.9423 -1.98437,-1.63368 -1.883683,-1.19326 -1.984378,-1.30658 -1.984378,-2.23313 0,-1.30961 -1.032095,-2.37115 -2.305391,-2.37115 -1.216062,0 -2.457109,1.20273 -2.457109,2.38125 0,1.75475 2.213941,2.97193 3.617508,1.98884 0.520842,-0.36481 0.697121,-0.30111 2.50627,0.90567 2.05695,1.3721 2.60747,1.57525 2.60747,0.9622 z m -7.389128,-2.96635 c -0.301604,-0.38342 -0.54837,-0.78408 -0.54837,-0.89036 0,-0.46003 1.141111,-1.5875 1.606703,-1.5875 0.665142,0 1.568297,0.91422 1.568297,1.5875 0,0.67329 -0.903155,1.5875 -1.568297,1.5875 -0.280479,0 -0.756729,-0.31371 -1.058333,-0.69714 z m 1.568297,-0.89036 c 0,-0.29104 -0.171567,-0.52916 -0.38126,-0.52916 -0.46741,0 -0.766249,0.4354 -0.544782,0.79375 0.287732,0.46556 0.926042,0.28318 0.926042,-0.26459 z m 20.657851,1.60785 c 1.10246,-1.10245 1.05198,-2.20867 -0.15264,-3.34478 l -0.92604,-0.87337 v -2.53131 c 0,-2.35491 -0.0369,-2.5313 -0.52917,-2.5313 -0.49389,0 -0.52917,0.17639 -0.52917,2.64583 0,1.45521 -0.10282,2.64583 -0.2285,2.64583 -0.12568,0 -0.5424,0.31389 -0.92604,0.69754 -0.50161,0.50161 -0.69518,0.96609 -0.68913,1.65365 0.0196,2.22197 2.41217,3.20644 3.98069,1.63791 z m -2.64991,-0.53324 c -0.29999,-0.29999 -0.54544,-0.78357 -0.54544,-1.07461 0,-0.72777 0.9725,-1.63769 1.64337,-1.53762 0.30388,0.0453 0.79605,0.40984 1.09372,0.81002 l 0.54123,0.7276 -0.54123,0.72761 c -0.68385,0.91934 -1.49144,1.04721 -2.19165,0.347 z m 1.43894,-1.07461 c 0,-0.21429 -0.20836,-0.42975 -0.46303,-0.4788 -0.32486,-0.0626 -0.46302,0.0803 -0.46302,0.4788 0,0.3985 0.13816,0.54136 0.46302,0.4788 0.25467,-0.049 0.46303,-0.2645 0.46303,-0.4788 z m -8.33438,0.39688 c 0,-0.30365 -0.33472,-0.39688 -1.425,-0.39688 -2.0507,0 -4.00218,-1.06908 -5.05249,-2.76792 -0.68252,-1.10395 -0.79723,-1.54918 -0.79784,-3.09682 -5.3e-4,-1.54463 -0.068,-1.80754 -0.46373,-1.80783 -0.38622,-2.6e-4 -0.46302,0.2469 -0.46302,1.49031 0,2.06776 0.45205,3.37432 1.63079,4.71344 1.39773,1.5879 2.86322,2.2621 4.91764,2.26236 1.29362,1.7e-4 1.65365,-0.0862 1.65365,-0.39666 z m -0.32353,-1.83724 c 0.30952,-0.30951 -0.34782,-0.67642 -1.21344,-0.67729 -2.05893,-0.002 -3.84067,-1.88009 -3.69826,-3.89807 0.0546,-0.77365 -0.0356,-1.16494 -0.29112,-1.263 -0.51799,-0.19877 -0.58947,-0.0649 -0.60603,1.13437 -0.0312,2.25982 1.10235,3.96721 3.12599,4.7085 0.89352,0.3273 2.3535,0.32485 2.68286,-0.004 z m -0.88873,-1.89524 c 0.66916,-0.25678 0.4957,-0.89773 -0.24295,-0.89773 -0.3638,0 -0.89958,-0.23813 -1.19062,-0.52917 -0.29104,-0.29104 -0.52917,-0.82682 -0.52917,-1.19062 0,-0.41158 -0.14993,-0.66146 -0.39687,-0.66146 -0.4747,0 -0.54434,1.34676 -0.11146,2.15559 0.21571,0.40306 1.34505,1.11936 2.00804,1.27364 0.0245,0.006 0.23284,-0.0619 0.46303,-0.15025 z m -9.900233,-3.21283 7e-6,-2.57969 0.926034,-0.73889 c 0.781032,-0.62318 0.926034,-0.90471 0.926034,-1.79796 0,-1.43519 -0.907719,-2.36122 -2.303079,-2.34953 -1.096867,0.009 -1.677966,0.34164 -2.151621,1.23096 -0.560186,1.05179 -0.367472,1.94916 0.618242,2.8788 l 0.926041,0.87338 v 2.5313 c 0,2.35492 0.03688,2.53131 0.529167,2.53131 0.492985,0 0.529167,-0.17639 0.529175,-2.57968 z m -1.258782,-3.91392 c -0.816417,-0.57184 -0.799259,-1.82592 0.03244,-2.37087 1.288786,-0.84444 2.770074,0.58395 2.033278,1.96066 -0.163015,0.3046 -0.401526,0.55381 -0.530026,0.55381 -0.128498,0 -0.3931,0.0612 -0.588005,0.13599 -0.194903,0.0748 -0.621361,-0.051 -0.947682,-0.27959 z m 1.258774,-1.17931 c 0,-0.35278 -0.17639,-0.52917 -0.529167,-0.52917 -0.509902,0 -0.716994,0.51773 -0.352777,0.88194 0.364215,0.36422 0.881944,0.15713 0.881944,-0.35277 z m 16.254421,6.74687 c 0.31771,-1.69357 -0.48018,-4.19977 -1.79834,-5.64859 -1.6423,-1.80508 -6.51858,-2.91978 -6.51858,-1.49012 0,0.29086 0.32388,0.39222 1.25677,0.39331 1.97371,0.002 3.19367,0.46615 4.39776,1.67201 1.2386,1.24043 1.7538,2.6038 1.7538,4.64107 0,1.61992 0.62959,1.91949 0.90859,0.43232 z m -2.22969,-2.11018 c -0.58087,-2.07466 -3.31924,-3.93201 -5.12788,-3.47807 -1.03254,0.25915 -0.5989,0.95804 0.59444,0.95804 2.1165,0 3.73788,1.68147 3.73788,3.87643 0,1.31543 0.55434,1.68047 0.8962,0.59015 0.15374,-0.49034 0.11902,-1.16202 -0.10064,-1.94655 z m -1.94035,1.55697 c 0.4413,-1.15001 -1.7822,-3.37351 -2.93221,-2.93221 -0.70816,0.27175 -0.50224,0.97188 0.28585,0.97188 0.94717,0 1.67448,0.70734 1.67448,1.62851 0,0.82893 0.69064,1.06473 0.97188,0.33182 z m -2.03021,-0.37283 c 0,-0.35278 -0.17639,-0.52917 -0.52917,-0.52917 -0.5099,0 -0.71699,0.51773 -0.35278,0.88195 0.36422,0.36421 0.88195,0.15712 0.88195,-0.35278 z m 10.60368,-4.21298 c 1.08827,-1.08827 0.97241,-2.7022 -0.262,-3.64996 -0.52547,-0.40344 -1.91495,-0.43016 -2.74329,-0.0527 -0.54334,0.24756 -0.90336,0.11958 -2.65485,-0.94378 -1.84484,-1.12003 -2.56229,-1.30607 -2.56229,-0.66444 0,0.12895 0.9525,0.80527 2.11666,1.50293 2.03121,1.21726 2.11667,1.3077 2.11667,2.23995 0,0.76 0.17721,1.1206 0.81405,1.65646 1.10263,0.9278 2.18909,0.89754 3.17505,-0.0884 z m -2.34121,-0.34584 c -1.13884,-0.54886 -0.99641,-2.33617 0.21687,-2.72124 1.47055,-0.46674 2.52117,1.74544 1.25137,2.63485 -0.67484,0.47267 -0.66759,0.47225 -1.46824,0.0864 z m 1.21274,-1.3312 c 0.0611,-0.3175 -0.0813,-0.45998 -0.45998,-0.45998 -0.37864,0 -0.54857,0.16992 -0.54857,0.54857 0,0.67803 0.87573,0.60111 1.00855,-0.0886 z m -11.62395,-3.91673 c 0.98893,0.52926 2.38445,0.34017 3.08741,-0.41834 0.92343,-0.9964 0.87444,-2.29 -0.12457,-3.28901 -0.98597,-0.98597 -2.07242,-1.01622 -3.17505,-0.0884 -0.64679,0.54423 -0.81405,0.89216 -0.81405,1.69331 0,0.97299 -0.075,1.05597 -2.14091,2.36756 -1.7419,1.1059 -2.083681,1.42817 -1.83389,1.72916 0.25551,0.30787 0.65662,0.14798 2.39082,-0.95304 1.73278,-1.10011 2.17247,-1.2755 2.61024,-1.04122 z m 0.61029,-0.69293 c -0.65027,-0.26014 -0.8962,-1.41796 -0.44686,-2.10374 0.9211,-1.40577 3.13865,-0.28309 2.54177,1.28683 -0.33228,0.87395 -1.15267,1.19387 -2.09491,0.81691 z m 1.27386,-1.40657 c 0,-0.35278 -0.17639,-0.52917 -0.52916,-0.52917 -0.35278,0 -0.52917,0.17639 -0.52917,0.52917 0,0.35278 0.17639,0.52917 0.52917,0.52917 0.35277,0 0.52916,-0.17639 0.52916,-0.52917 z"
         id="path140-6"
         inkscape:connector-curvature="0" />
    </clipPath>
  </defs>
  <sodipodi:namedview
     id="base"
     pagecolor="#ffffff"
     bordercolor="#666666"
     borderopacity="1.0"
     inkscape:pageopacity="0.0"
     inkscape:pageshadow="2"
     inkscape:zoom="11.2"
     inkscape:cx="45.14504"
     inkscape:cy="79.203938"
     inkscape:document-units="mm"
     inkscape:current-layer="layer1"
     showgrid="false"
     fit-margin-top="0"
     fit-margin-left="0"
     fit-margin-right="0"
     fit-margin-bottom="0"
     inkscape:window-width="3840"
     inkscape:window-height="2096"
     inkscape:window-x="1920"
     inkscape:window-y="27"
     inkscape:window-maximized="0"
     inkscape:snap-global="false" />
  <metadata
     id="metadata5">
    <rdf:RDF>
      <cc:Work
         rdf:about="">
        <dc:format>image/svg+xml</dc:format>
        <dc:type
           rdf:resource="http://purl.org/dc/dcmitype/StillImage" />
        <dc:title></dc:title>
      </cc:Work>
    </rdf:RDF>
  </metadata>
  <g
     inkscape:label="Layer 1"
     inkscape:groupmode="layer"
     id="layer1"
     transform="translate(-82.38583,-154.71238)">
    <rect
       style="fill:#ffffff;stroke-width:0.26458332"
       id="rect81"
       width="2.6058779"
       height="9.3544331"
       x="70.291878"
       y="146.66087" />
    <rect
       style="fill:#ffffff;stroke-width:0.26458332"
       id="rect85"
       width="0.73499119"
       height="0.4009043"
       x="127.68801"
       y="172.85329" />
    <g
       id="g1074">
      <path
         d="m 98.254958,155.48078 -15.167546,9.02034 0.03341,18.0407 14.933685,8.65285 15.902533,-8.51922 0.0334,-18.54182 z"
         style="fill:url(#linearGradient1016);fill-opacity:1;stroke:#000000;stroke-width:0.265;stroke-linecap:butt;stroke-linejoin:miter;stroke-opacity:0.01904762;stroke-miterlimit:4;stroke-dasharray:none"
         id="path161" />
      <path
         id="rect89"
         d="m 90.470734,158.01984 h 31.972116 v 37.61818 H 90.470734 Z"
         clip-path="url(#clipPath138-3)"
         style="fill:#003380;stroke-width:0.36283597"
         transform="translate(-8.1014681,-3.3499316)" />
    </g>
  </g>
</svg>
